<?xml version="1.0" encoding="utf-8"?>
<!-- Generator: Adobe Illustrator 16.0.4, SVG Export Plug-In . SVG Version: 6.00 Build 0)  -->
<!DOCTYPE svg PUBLIC "-//W3C//DTD SVG 1.1//EN" "http://www.w3.org/Graphics/SVG/1.1/DTD/svg11.dtd">
<svg version="1.1" id="Layer_2" xmlns="http://www.w3.org/2000/svg" xmlns:xlink="http://www.w3.org/1999/xlink" x="0px" y="0px"
	 width="675.197px" height="461.977px" viewBox="0 0 675.197 461.977" enable-background="new 0 0 675.197 461.977"
	 xml:space="preserve">
<line fill="none" stroke="#2985F4" stroke-width="5" stroke-linecap="round" stroke-linejoin="round" stroke-miterlimit="10" x1="293.691" y1="394.178" x2="383.8" y2="394.178"/>
<g>
	<path fill="none" stroke="#2985F4" stroke-width="5" stroke-linecap="round" stroke-linejoin="round" stroke-miterlimit="10" d="
		M121.296,178.449v201.002c0,3.961,3.241,7.201,7.202,7.201h420.066c3.961,0,7.199-3.24,7.199-7.201V96.467
		c0-3.961-3.238-7.202-7.199-7.202H204.14"/>
</g>
<g>
	<g>
		<path fill="none" stroke="#2985F4" stroke-width="5" stroke-linecap="round" stroke-linejoin="round" stroke-miterlimit="10" d="
			M555.768,380.248c0,3.961-3.239,7.201-7.2,7.201H128.498c-3.961,0-7.202-3.24-7.202-7.201v-25.07c0-3.963,3.241-7.203,7.202-7.203
			h420.066c3.961,0,7.199,3.24,7.199,7.203v25.07H555.768L555.768,380.248z"/>
	</g>
</g>
<path fill="none" stroke="#2985F4" stroke-width="5" stroke-linecap="round" stroke-linejoin="round" stroke-miterlimit="10" d="
	M267.145,432.264c0,0,69.014-5.057,142.839,0c0,5.062,0,5.062,0,5.062H267.145V432.264z"/>
<g>
	<path fill="none" stroke="#2985F4" stroke-width="5" stroke-linecap="round" stroke-linejoin="round" stroke-miterlimit="10" d="
		M138.114,178.449v151.848c0,0.041,0.032,0.072,0.072,0.072h399.955c0.04,0,0.072-0.031,0.072-0.072V106.385
		c0-0.04-0.032-0.072-0.072-0.072H205.569"/>
</g>
<line fill="none" stroke="#2985F4" stroke-width="5" stroke-linecap="round" stroke-linejoin="round" stroke-miterlimit="10" x1="271.935" y1="137.485" x2="271.935" y2="299.207"/>
<line fill="none" stroke="#2985F4" stroke-width="5" stroke-linecap="round" stroke-linejoin="round" stroke-miterlimit="10" x1="221.911" y1="173.794" x2="261.366" y2="173.794"/>
<line fill="none" stroke="#2985F4" stroke-width="5" stroke-linecap="round" stroke-linejoin="round" stroke-miterlimit="10" x1="221.911" y1="188.238" x2="261.366" y2="188.238"/>
<line fill="none" stroke="#2985F4" stroke-width="5" stroke-linecap="round" stroke-linejoin="round" stroke-miterlimit="10" x1="221.911" y1="202.681" x2="261.366" y2="202.681"/>
<line fill="none" stroke="#2985F4" stroke-width="5" stroke-linecap="round" stroke-linejoin="round" stroke-miterlimit="10" x1="221.911" y1="217.125" x2="261.366" y2="217.125"/>
<line fill="none" stroke="#2985F4" stroke-width="5" stroke-linecap="round" stroke-linejoin="round" stroke-miterlimit="10" x1="221.911" y1="231.568" x2="248.333" y2="231.568"/>
<path fill="none" stroke="#2C3E50" stroke-width="8.0572" stroke-linecap="round" stroke-linejoin="round" stroke-miterlimit="10" d="
	M205.569,102.03c0,42.735-34.704,77.379-77.519,77.379c-42.812,0-77.52-34.645-77.52-77.379c0-42.734,34.707-77.379,77.52-77.379
	C170.865,24.65,205.569,59.295,205.569,102.03z"/>
<path fill="none" stroke="#2985F4" stroke-width="4.4278" stroke-linecap="round" stroke-linejoin="round" stroke-miterlimit="10" d="
	M110.893,149.705"/>
<path fill="none" stroke="#2985F4" stroke-width="4.4278" stroke-linecap="round" stroke-linejoin="round" stroke-miterlimit="10" d="
	M128.052,102.03"/>
<path fill="none" stroke="#2C3E50" stroke-width="5.0358" stroke-linecap="round" stroke-linejoin="round" stroke-miterlimit="10" d="
	M146.951,57.364l-26.359,27.179l22.26,21.511c7.519,7.266,19.515,7.07,26.793-0.433c7.279-7.506,7.086-19.48-0.436-26.747
	l-32.925-31.816l-63.01,64.969l32.925,31.816c7.519,7.267,19.516,7.072,26.794-0.432c7.28-7.507,7.085-19.48-0.434-26.746
	L110.3,95.154l-26.359,27.18"/>
<line fill="none" stroke="#2985F4" stroke-width="5" stroke-linecap="round" stroke-linejoin="round" stroke-miterlimit="10" x1="304.244" y1="250.693" x2="433.366" y2="250.693"/>
<line fill="none" stroke="#2985F4" stroke-width="5" stroke-linecap="round" stroke-linejoin="round" stroke-miterlimit="10" x1="307.591" y1="265.666" x2="430.02" y2="265.666"/>
<line fill="none" stroke="#2985F4" stroke-width="5" stroke-linecap="round" stroke-linejoin="round" stroke-miterlimit="10" x1="320.257" y1="280.639" x2="417.354" y2="280.639"/>
<line fill="none" stroke="#2985F4" stroke-width="3.948" stroke-linecap="round" stroke-linejoin="round" stroke-miterlimit="10" x1="297.298" y1="175.361" x2="354.834" y2="175.361"/>
<line fill="none" stroke="#2985F4" stroke-width="3.948" stroke-linecap="round" stroke-linejoin="round" stroke-miterlimit="10" x1="354.834" y1="175.361" x2="354.834" y2="232.896"/>
<line fill="none" stroke="#2985F4" stroke-width="3.948" stroke-linecap="round" stroke-linejoin="round" stroke-miterlimit="10" x1="354.834" y1="232.896" x2="297.298" y2="232.896"/>
<line fill="none" stroke="#2985F4" stroke-width="3.948" stroke-linecap="round" stroke-linejoin="round" stroke-miterlimit="10" x1="297.298" y1="232.896" x2="297.298" y2="175.361"/>
<line fill="none" stroke="#2985F4" stroke-width="3.948" stroke-linecap="round" stroke-linejoin="round" stroke-miterlimit="10" x1="297.298" y1="191.416" x2="354.834" y2="191.416"/>
<line fill="none" stroke="#2985F4" stroke-width="5" stroke-linecap="round" stroke-linejoin="round" stroke-miterlimit="10" x1="211.342" y1="137.485" x2="464.976" y2="137.485"/>
<line fill="none" stroke="#2985F4" stroke-width="5" stroke-linecap="round" stroke-linejoin="round" stroke-miterlimit="10" x1="211.342" y1="299.207" x2="464.976" y2="299.207"/>
<line fill="none" stroke="#2985F4" stroke-width="5" stroke-linecap="round" stroke-linejoin="round" stroke-miterlimit="10" x1="464.976" y1="137.485" x2="464.976" y2="299.207"/>
<line fill="none" stroke="#2985F4" stroke-width="5" stroke-linecap="round" stroke-linejoin="round" stroke-miterlimit="10" x1="211.342" y1="137.485" x2="211.342" y2="299.207"/>
<line fill="none" stroke="#2985F4" stroke-width="5" stroke-linecap="round" stroke-linejoin="round" stroke-miterlimit="10" x1="211.342" y1="156.18" x2="464.976" y2="156.18"/>
<line fill="none" stroke="#2985F4" stroke-width="3.948" stroke-linecap="round" stroke-linejoin="round" stroke-miterlimit="10" x1="382.569" y1="175.361" x2="440.105" y2="175.361"/>
<line fill="none" stroke="#2985F4" stroke-width="3.948" stroke-linecap="round" stroke-linejoin="round" stroke-miterlimit="10" x1="440.105" y1="175.361" x2="440.105" y2="232.896"/>
<line fill="none" stroke="#2985F4" stroke-width="3.948" stroke-linecap="round" stroke-linejoin="round" stroke-miterlimit="10" x1="440.105" y1="232.896" x2="382.569" y2="232.896"/>
<line fill="none" stroke="#2985F4" stroke-width="3.948" stroke-linecap="round" stroke-linejoin="round" stroke-miterlimit="10" x1="382.569" y1="232.896" x2="382.569" y2="175.361"/>
<line fill="none" stroke="#2985F4" stroke-width="3.948" stroke-linecap="round" stroke-linejoin="round" stroke-miterlimit="10" x1="382.569" y1="191.416" x2="440.105" y2="191.416"/>
<line fill="none" stroke="#2985F4" stroke-width="3.948" stroke-linecap="round" stroke-linejoin="round" stroke-miterlimit="10" x1="282.138" y1="430.264" x2="296.544" y2="380.25"/>
<line fill="none" stroke="#2985F4" stroke-width="3.948" stroke-linecap="round" stroke-linejoin="round" stroke-miterlimit="10" x1="296.544" y1="380.25" x2="380.948" y2="380.25"/>
<line fill="none" stroke="#2985F4" stroke-width="3.948" stroke-linecap="round" stroke-linejoin="round" stroke-miterlimit="10" x1="380.948" y1="380.25" x2="395.354" y2="430.264"/>
</svg>
